<svg xmlns="http://www.w3.org/2000/svg" viewBox="0 0 256 256" role="img" aria-label="MK Tech Solutions logo">
  <defs>
    <linearGradient id="blueGradient" x1="0" y1="0" x2="1" y2="1">
      <stop offset="0" stop-color="#1d8ef0"/>
      <stop offset="0.5" stop-color="#0b6ad7"/>
      <stop offset="1" stop-color="#083d8f"/>
    </linearGradient>
    <linearGradient id="grayGradient" x1="0" y1="0" x2="1" y2="1">
      <stop offset="0" stop-color="#5f6470"/>
      <stop offset="0.5" stop-color="#2a2d34"/>
      <stop offset="1" stop-color="#1a1d22"/>
    </linearGradient>
  </defs>

  <rect width="256" height="256" rx="34" fill="#ffffff"/>

  <g transform="translate(10 12)">
    <path d="M18 172V38h26l48 64 48-64h26v134h-26V93L92 157H76L44 93v79H18z" fill="url(#blueGradient)"/>

    <path d="M110 160c-18-21-30-48-25-83 6-38 31-64 66-74 22-6 46-2 63 15-13-1-24 4-35 16-26 28-34 60-42 99-5 29-12 50-27 62Z" fill="url(#grayGradient)" opacity="0.9"/>

    <path d="M27 184c20 26 58 31 90 9 29-20 42-52 41-88 4 33-8 70-34 93-28 25-68 32-97 20Z" fill="none" stroke="#2b2f37" stroke-width="12" stroke-linecap="round" stroke-linejoin="round"/>

    <circle cx="192" cy="52" r="9" fill="#0a69d8"/>
    <rect x="164" y="117" width="10" height="10" rx="2" fill="#1a2433"/>
    <rect x="181" y="104" width="10" height="10" rx="2" fill="#1a2433"/>
    <rect x="196" y="117" width="10" height="10" rx="2" fill="#1a2433"/>
    <rect x="214" y="131" width="10" height="10" rx="2" fill="#1a2433"/>
    <rect x="198" y="144" width="10" height="10" rx="2" fill="#0a69d8"/>
    <rect x="176" y="157" width="10" height="10" rx="2" fill="#0a69d8"/>
    <rect x="145" y="152" width="10" height="10" rx="2" fill="#1a2433"/>
  </g>
</svg>
